<?xml version="1.0" encoding="iso-8859-1"?>
<!-- Generator: Adobe Illustrator 22.1.0, SVG Export Plug-In . SVG Version: 6.00 Build 0)  -->
<svg version="1.1" xmlns="http://www.w3.org/2000/svg" xmlns:xlink="http://www.w3.org/1999/xlink" x="0px" y="0px"
	 viewBox="0 0 1000 1000" style="enable-background:new 0 0 1000 1000;" xml:space="preserve">
<g id="Layer_6" style="display:none;">
	
		<linearGradient id="SVGID_1_" gradientUnits="userSpaceOnUse" x1="-1" y1="500" x2="999" y2="500" gradientTransform="matrix(6.123234e-17 1 -1 6.123234e-17 999 1)">
		<stop  offset="0" style="stop-color:#4E4CC1"/>
		<stop  offset="1" style="stop-color:#93278F"/>
	</linearGradient>
	<polygon style="display:inline;fill:url(#SVGID_1_);" points="-1,1000 -1,0 999,0 999,1000 	"/>
</g>
<g id="Layer_8" style="display:none;">
	
		<rect y="2" transform="matrix(-1.836970e-16 1 -1 -1.836970e-16 1002 2)" style="display:inline;opacity:0.36;" width="1000" height="1000"/>
</g>
<g id="Layer_7">
	<linearGradient id="SVGID_2_" gradientUnits="userSpaceOnUse" x1="502" y1="145" x2="502" y2="846">
		<stop  offset="0" style="stop-color:#4E4CC1"/>
		<stop  offset="1" style="stop-color:#93278F"/>
	</linearGradient>
	<polygon style="fill:url(#SVGID_2_);stroke:#FFFFFF;stroke-width:8;stroke-miterlimit:10;" points="248,846 500,737 756,846 
		500,145 	"/>
</g>
<g id="Layer_2">
	<path style="fill:none;stroke:#FFFFFF;stroke-width:8;stroke-miterlimit:10;" d="M246,850c37-16,73-32,110-49c2-1,3,0,5-1
		c73-34,146-64,218.477-96.807"/>
	<path style="fill:none;stroke:#FFFFFF;stroke-width:8;stroke-miterlimit:10;" d="M409.959,698.872C466,698,523,698,579.479,697.892
		"/>
	<line style="fill:none;stroke:#FFFFFF;stroke-width:8;stroke-miterlimit:10;" x1="752" y1="849" x2="405" y2="701"/>
</g>
<g id="Layer_5">
	<path style="fill:none;stroke:#FFFFFF;stroke-width:8;stroke-miterlimit:10;" d="M307.191,681.34C335,606,361,531,388,455
		c6-16,12-32,18-48c10-28,19-56,29-84c4-11,9-22,13-34c16-47,33-93,50.07-140.136"/>
	<path style="fill:none;stroke:#FFFFFF;stroke-width:8;stroke-miterlimit:10;" d="M296.327,711.638C290,728,284,745,278,761
		c-10,31-22,60-32,91"/>
	<path style="fill:none;stroke:#FFFFFF;stroke-width:8;stroke-miterlimit:10;" d="M502.645,150.836C523,211,545,269,566,329
		c43,118,83,235,126.809,352.34"/>
	<path style="fill:none;stroke:#FFFFFF;stroke-width:8;stroke-miterlimit:10;" d="M702.248,707.664C720,756,736,804,754,852"/>
	<line style="fill:none;stroke:#FFFFFF;stroke-width:8;stroke-miterlimit:10;" x1="223" y1="466" x2="767" y2="466"/>
	<path style="fill:none;stroke:#FFFFFF;stroke-width:8;stroke-miterlimit:10;" d="M223,466
		c40.656,7.01,81.121,15.064,121.698,22.506c11.297,2.072,22.602,4.096,33.922,6.036"/>
	<path style="fill:none;stroke:#FFFFFF;stroke-width:8;stroke-miterlimit:10;" d="M767,466
		c-22.093-6.136-44.256-12.015-66.403-17.955c-22.204-5.955-44.409-11.902-66.607-17.88c-12.202-3.286-24.408-6.574-36.728-9.396"/>
	<line style="fill:none;stroke:#FFFFFF;stroke-width:8;stroke-miterlimit:10;" x1="246" y1="850" x2="498" y2="149"/>
	<line style="fill:none;stroke:#FFFFFF;stroke-width:8;stroke-miterlimit:10;" x1="754" y1="852" x2="503" y2="151"/>
	<line style="fill:none;stroke:#FFFFFF;stroke-width:8;stroke-miterlimit:10;" x1="498" y1="741" x2="754" y2="852"/>
	<line style="fill:none;stroke:#FFFFFF;stroke-width:8;stroke-miterlimit:10;" x1="246" y1="850" x2="498" y2="741"/>
</g>
</svg>
